ffmpeg version 4.3.2-0+deb11u1ubuntu1 Copyright (c) 2000-2021 the FFmpeg developers
  built with gcc 10 (Ubuntu 10.2.1-20ubuntu1)
  configuration: --prefix=/usr --extra-version=0+deb11u1ubuntu1 --toolchain=hardened --libdir=/usr/lib/x86_64-linux-gnu --incdir=/usr/include/x86_64-linux-gnu --arch=amd64 --enable-gpl --disable-stripping --enable-avresample --disable-filter=resample --enable-gnutls --enable-ladspa --enable-libaom --enable-libass --enable-libbluray --enable-libbs2b --enable-libcaca --enable-libcdio --enable-libcodec2 --enable-libdav1d --enable-libflite --enable-libfontconfig --enable-libfreetype --enable-libfribidi --enable-libgme --enable-libgsm --enable-libjack --enable-libmp3lame --enable-libmysofa --enable-libopenjpeg --enable-libopenmpt --enable-libopus --enable-libpulse --enable-librabbitmq --enable-librsvg --enable-librubberband --enable-libshine --enable-libsnappy --enable-libsoxr --enable-libspeex --enable-libsrt --enable-libssh --enable-libtheora --enable-libtwolame --enable-libvidstab --enable-libvorbis --enable-libvpx --enable-libwavpack --enable-libwebp --enable-libx265 --enable-libxml2 --enable-libxvid --enable-libzmq --enable-libzvbi --enable-lv2 --enable-omx --enable-openal --enable-opencl --enable-opengl --enable-sdl2 --enable-pocketsphinx --enable-libmfx --enable-libdc1394 --enable-libdrm --enable-libiec61883 --enable-nvenc --enable-chromaprint --enable-frei0r --enable-libx264 --enable-shared
  libavutil      56. 51.100 / 56. 51.100
  libavcodec     58. 91.100 / 58. 91.100
  libavformat    58. 45.100 / 58. 45.100
  libavdevice    58. 10.100 / 58. 10.100
  libavfilter     7. 85.100 /  7. 85.100
  libavresample   4.  0.  0 /  4.  0.  0
  libswscale      5.  7.100 /  5.  7.100
  libswresample   3.  7.100 /  3.  7.100
  libpostproc    55.  7.100 / 55.  7.100
Input #0, image2, from 'temp/*.jpeg':
  Duration: 00:01:35.93, start: 0.000000, bitrate: N/A
    Stream #0:0: Video: mjpeg (Baseline), yuvj420p(pc, bt470bg/unknown/unknown), 2560x1920, 30 fps, 30 tbr, 30 tbn, 30 tbc
Stream mapping:
  Stream #0:0 -> #0:0 (mjpeg (native) -> h264 (libx264))
Press [q] to stop, [?] for help
[swscaler @ 0x55c1d6b4c080] deprecated pixel format used, make sure you did set range correctly
[libx264 @ 0x55c1d69f0f80] using cpu capabilities: MMX2 SSE2Fast SSSE3 SSE4.2 AVX FMA3 BMI2 AVX2
[libx264 @ 0x55c1d69f0f80] profile High, level 5.0, 4:2:0, 8-bit
[libx264 @ 0x55c1d69f0f80] 264 - core 160 r3011 cde9a93 - H.264/MPEG-4 AVC codec - Copyleft 2003-2020 - http://www.videolan.org/x264.html - options: cabac=1 ref=3 deblock=1:0:0 analyse=0x3:0x113 me=hex subme=7 psy=1 psy_rd=1.00:0.00 mixed_ref=1 me_range=16 chroma_me=1 trellis=1 8x8dct=1 cqm=0 deadzone=21,11 fast_pskip=1 chroma_qp_offset=-2 threads=12 lookahead_threads=2 sliced_threads=0 nr=0 decimate=1 interlaced=0 bluray_compat=0 constrained_intra=0 bframes=3 b_pyramid=2 b_adapt=1 b_bias=0 direct=1 weightb=1 open_gop=0 weightp=2 keyint=250 keyint_min=25 scenecut=40 intra_refresh=0 rc_lookahead=40 rc=crf mbtree=1 crf=23.0 qcomp=0.60 qpmin=0 qpmax=69 qpstep=4 ip_ratio=1.40 aq=1:1.00
Output #0, mp4, to 'Output/Videos/21-9-2021--28-10-2021.mp4':
  Metadata:
    encoder         : Lavf58.45.100
    Stream #0:0: Video: h264 (libx264) (avc1 / 0x31637661), yuv420p, 2560x1920, q=-1--1, 30 fps, 15360 tbn, 30 tbc
    Metadata:
      encoder         : Lavc58.91.100 libx264
    Side data:
      cpb: bitrate max/min/avg: 0/0/0 buffer size: 0 vbv_delay: N/A
frame=    4 fps=0.0 q=0.0 size=       0kB time=00:00:00.00 bitrate=N/A speed=   0x    frame=    8 fps=7.1 q=0.0 size=       0kB time=00:00:00.00 bitrate=N/A speed=   0x    frame=   13 fps=7.5 q=0.0 size=       0kB time=00:00:00.00 bitrate=N/A speed=   0x    frame=   18 fps=8.0 q=0.0 size=       0kB time=00:00:00.00 bitrate=N/A speed=   0x    frame=   23 fps=8.1 q=0.0 size=       0kB time=00:00:00.00 bitrate=N/A speed=   0x    frame=   28 fps=8.4 q=0.0 size=       0kB time=00:00:00.00 bitrate=N/A speed=   0x    frame=   35 fps=9.0 q=0.0 size=       0kB time=00:00:00.00 bitrate=N/A speed=   0x    frame=   41 fps=9.3 q=0.0 size=       0kB time=00:00:00.00 bitrate=N/A speed=   0x    frame=   46 fps=9.3 q=0.0 size=       0kB time=00:00:00.00 bitrate=N/A speed=   0x    frame=   47 fps=7.3 q=0.0 size=       0kB time=00:00:00.00 bitrate=N/A speed=   0x    frame=   51 fps=7.3 q=0.0 size=       0kB time=00:00:00.00 bitrate=N/A speed=   0x    frame=   54 fps=7.1 q=0.0 size=       0kB time=00:00:00.00 bitrate=N/A speed=   0x    frame=   57 fps=7.0 q=29.0 size=     256kB time=-00:00:00.06 bitrate=N/A speed=N/A    frame=   59 fps=6.7 q=29.0 size=     512kB time=00:00:00.00 bitrate=64533661.5kbits/s speed=7.36e-06x    frame=   60 fps=6.4 q=29.0 size=     512kB time=00:00:00.03 bitrate=125597.0kbits/s speed=0.00357x    frame=   62 fps=6.3 q=29.0 size=     768kB time=00:00:00.10 bitrate=62877.5kbits/s speed=0.0101x    frame=   63 fps=5.9 q=29.0 size=     768kB time=00:00:00.13 bitrate=47165.9kbits/s speed=0.0125x    frame=   65 fps=5.8 q=29.0 size=    1024kB time=00:00:00.20 bitrate=41931.3kbits/s speed=0.0177x    frame=   67 fps=5.6 q=29.0 size=    1024kB time=00:00:00.26 bitrate=31451.0kbits/s speed=0.0222x    frame=   69 fps=5.4 q=29.0 size=    1280kB time=00:00:00.33 bitrate=31452.3kbits/s speed=0.0263x    frame=   72 fps=5.5 q=29.0 size=    1536kB time=00:00:00.43 bitrate=29034.0kbits/s speed=0.0328x    frame=   75 fps=5.3 q=29.0 size=    1792kB time=00:00:00.53 bitrate=27522.5kbits/s speed=0.0376x    frame=   79 fps=5.4 q=29.0 size=    2048kB time=00:00:00.66 bitrate=25163.9kbits/s speed=0.0453x    frame=   82 fps=5.4 q=29.0 size=    2048kB time=00:00:00.76 bitrate=21882.0kbits/s speed=0.0502x    frame=   87 fps=5.2 q=29.0 size=    2560kB time=00:00:00.93 bitrate=22468.3kbits/s speed=0.056x    frame=   92 fps=5.3 q=29.0 size=    2816kB time=00:00:01.10 bitrate=20970.6kbits/s speed=0.0637x    frame=   96 fps=5.4 q=29.0 size=    3072kB time=00:00:01.23 bitrate=20404.0kbits/s speed=0.0693x    frame=   99 fps=4.9 q=29.0 size=    3328kB time=00:00:01.33 bitrate=20446.5kbits/s speed=0.0658x    frame=  100 fps=4.8 q=29.0 size=    3328kB time=00:00:01.36 bitrate=19947.8kbits/s speed=0.0658x    frame=  102 fps=4.8 q=29.0 size=    3584kB time=00:00:01.43 bitrate=20483.2kbits/s speed=0.0668x    frame=  103 fps=4.6 q=29.0 size=    3584kB time=00:00:01.46 bitrate=20017.6kbits/s speed=0.0656x    frame=  105 fps=4.6 q=29.0 size=    3584kB time=00:00:01.53 bitrate=19147.4kbits/s speed=0.0667x    frame=  110 fps=4.7 q=29.0 size=    3840kB time=00:00:01.70 bitrate=18503.8kbits/s speed=0.072x    frame=  111 fps=4.5 q=29.0 size=    4096kB time=00:00:01.73 bitrate=19357.8kbits/s speed=0.0705x    frame=  113 fps=4.5 q=29.0 size=    4096kB time=00:00:01.80 bitrate=18640.9kbits/s speed=0.0712x    frame=  116 fps=4.3 q=29.0 size=    4352kB time=00:00:01.90 bitrate=18763.6kbits/s speed=0.071x    frame=  120 fps=4.2 q=29.0 size=    4608kB time=00:00:02.03 bitrate=18564.6kbits/s speed=0.072x    frame=  123 fps=4.3 q=29.0 size=    4608kB time=00:00:02.13 bitrate=17694.4kbits/s speed=0.0738x    frame=  124 fps=4.2 q=29.0 size=    4608kB time=00:00:02.16 bitrate=17422.1kbits/s speed=0.0733x    frame=  127 fps=4.2 q=29.0 size=    4864kB time=00:00:02.26 bitrate=17578.7kbits/s speed=0.0748x    frame=  128 fps=4.1 q=29.0 size=    5120kB time=00:00:02.30 bitrate=18235.8kbits/s speed=0.0744x    frame=  133 fps=4.2 q=29.0 size=    5376kB time=00:00:02.46 bitrate=17853.8kbits/s speed=0.0779x    frame=  135 fps=4.2 q=29.0 size=    5376kB time=00:00:02.53 bitrate=17384.0kbits/s speed=0.0784x    frame=  137 fps=4.2 q=29.0 size=    5632kB time=00:00:02.60 bitrate=17744.8kbits/s speed=0.0788x    frame=  140 fps=4.1 q=29.0 size=    5632kB time=00:00:02.70 bitrate=17087.6kbits/s speed=0.0798x    frame=  142 fps=4.1 q=29.0 size=    5888kB time=00:00:02.76 bitrate=17433.9kbits/s speed=0.0804x    frame=  145 fps=4.1 q=29.0 size=    6144kB time=00:00:02.86 bitrate=17557.3kbits/s speed=0.082x    frame=  148 fps=4.2 q=29.0 size=    6144kB time=00:00:02.96 bitrate=16965.5kbits/s speed=0.0834x    frame=  154 fps=4.3 q=29.0 size=    6656kB time=00:00:03.16 bitrate=17218.5kbits/s speed=0.0877x    frame=  156 fps=4.3 q=29.0 size=    6656kB time=00:00:03.23 bitrate=16863.5kbits/s speed=0.0882x    frame=  163 fps=4.4 q=29.0 size=    7168kB time=00:00:03.46 bitrate=16938.3kbits/s speed=0.0926x    frame=  167 fps=4.4 q=29.0 size=    7424kB time=00:00:03.60 bitrate=16893.5kbits/s speed=0.0942x    frame=  171 fps=4.4 q=29.0 size=    7680kB time=00:00:03.73 bitrate=16851.9kbits/s speed=0.0961x    frame=  176 fps=4.5 q=29.0 size=    7936kB time=00:00:03.90 bitrate=16669.5kbits/s speed=0.0992x    frame=  180 fps=4.5 q=29.0 size=    8192kB time=00:00:04.03 bitrate=16638.4kbits/s speed=0.101x    frame=  183 fps=4.5 q=29.0 size=    8448kB time=00:00:04.13 bitrate=16743.2kbits/s speed=0.101x    frame=  187 fps=4.5 q=29.0 size=    8704kB time=00:00:04.26 bitrate=16711.5kbits/s speed=0.102x    frame=  191 fps=4.5 q=29.0 size=    8960kB time=00:00:04.40 bitrate=16681.7kbits/s speed=0.104x    frame=  195 fps=4.5 q=29.0 size=    9472kB time=00:00:04.53 bitrate=17116.3kbits/s speed=0.104x    frame=  196 fps=4.4 q=29.0 size=    9472kB time=00:00:04.56 bitrate=16991.4kbits/s speed=0.103x    frame=  200 fps=4.4 q=29.0 size=    9728kB time=00:00:04.70 bitrate=16955.5kbits/s speed=0.103x    frame=  204 fps=4.4 q=29.0 size=    9984kB time=00:00:04.83 bitrate=16921.7kbits/s speed=0.104x    frame=  208 fps=4.3 q=29.0 size=   10240kB time=00:00:04.96 bitrate=16889.7kbits/s speed=0.103x    frame=  211 fps=4.2 q=29.0 size=   10496kB time=00:00:05.06 bitrate=16970.2kbits/s speed=0.102x    frame=  212 fps=4.2 q=29.0 size=   10496kB time=00:00:05.10 bitrate=16859.3kbits/s speed=0.101x    frame=  215 fps=4.1 q=29.0 size=   10752kB time=00:00:05.20 bitrate=16938.4kbits/s speed= 0.1x    frame=  218 fps=4.2 q=29.0 size=   11008kB time=00:00:05.30 bitrate=17014.5kbits/s speed=0.101x    frame=  220 fps=4.2 q=29.0 size=   11264kB time=00:00:05.36 bitrate=17193.9kbits/s speed=0.101x    frame=  222 fps=4.1 q=29.0 size=   11264kB time=00:00:05.43 bitrate=16982.9kbits/s speed=0.101x    frame=  225 fps=4.1 q=29.0 size=   11520kB time=00:00:05.53 bitrate=17055.0kbits/s speed=0.101x    frame=  227 fps=4.1 q=29.0 size=   11520kB time=00:00:05.60 bitrate=16852.0kbits/s speed=0.101x    frame=  229 fps=4.1 q=29.0 size=   11776kB time=00:00:05.66 bitrate=17023.8kbits/s speed= 0.1x    frame=  231 fps=4.0 q=29.0 size=   11776kB time=00:00:05.73 bitrate=16825.9kbits/s speed= 0.1x    frame=  235 fps=4.1 q=29.0 size=   12032kB time=00:00:05.86 bitrate=16800.9kbits/s speed=0.102x    frame=  238 fps=4.0 q=29.0 size=   12288kB time=00:00:05.96 bitrate=16870.8kbits/s speed=0.0993x    frame=  240 fps=4.0 q=29.0 size=   12544kB time=00:00:06.03 bitrate=17032.0kbits/s speed=0.0994x    frame=  243 fps=4.0 q=29.0 size=   12544kB time=00:00:06.13 bitrate=16754.3kbits/s speed= 0.1x    frame=  246 fps=3.9 q=29.0 size=   12800kB time=00:00:06.23 bitrate=16822.0kbits/s speed= 0.1x    frame=  247 fps=3.9 q=29.0 size=   13056kB time=00:00:06.26 bitrate=17067.1kbits/s speed=0.0992x    frame=  251 fps=3.9 q=29.0 size=   13312kB time=00:00:06.40 bitrate=17039.2kbits/s speed=0.0993x    frame=  252 fps=3.9 q=29.0 size=   13568kB time=00:00:06.43 bitrate=17276.9kbits/s speed=0.0988x    frame=  253 fps=3.8 q=29.0 size=   13568kB time=00:00:06.46 bitrate=17187.9kbits/s speed=0.0973x    frame=  256 fps=3.8 q=29.0 size=   13824kB time=00:00:06.56 bitrate=17245.5kbits/s speed=0.098x    frame=  257 fps=3.8 q=29.0 size=   13824kB time=00:00:06.60 bitrate=17158.4kbits/s speed=0.0972x    frame=  260 fps=3.8 q=29.0 size=   14080kB time=00:00:06.70 bitrate=17215.3kbits/s speed=0.0978x    frame=  261 fps=3.7 q=29.0 size=   14080kB time=00:00:06.73 bitrate=17130.1kbits/s speed=0.0963x    frame=  264 fps=3.7 q=26.0 size=   14336kB time=00:00:06.83 bitrate=17186.3kbits/s speed=0.0969x    frame=  265 fps=3.7 q=29.0 size=   14592kB time=00:00:06.86 bitrate=17408.3kbits/s speed=0.0956x    frame=  267 fps=3.7 q=29.0 size=   14592kB time=00:00:06.93 bitrate=17240.9kbits/s speed=0.0958x    frame=  269 fps=3.6 q=29.0 size=   14848kB time=00:00:07.00 bitrate=17376.3kbits/s speed=0.0946x    frame=  270 fps=3.6 q=29.0 size=   14848kB time=00:00:07.03 bitrate=17293.9kbits/s speed=0.0938x    frame=  272 fps=3.6 q=29.0 size=   14848kB time=00:00:07.10 bitrate=17131.6kbits/s speed=0.0939x    frame=  276 fps=3.6 q=29.0 size=   15616kB time=00:00:07.23 bitrate=17685.6kbits/s speed=0.0949x    frame=  280 fps=3.6 q=29.0 size=   15872kB time=00:00:07.36 bitrate=17650.1kbits/s speed=0.096x    frame=  281 fps=3.6 q=29.0 size=   15872kB time=00:00:07.40 bitrate=17570.6kbits/s speed=0.0945x    frame=  284 fps=3.6 q=29.0 size=   16128kB time=00:00:07.50 bitrate=17616.0kbits/s speed=0.095x    frame=  285 fps=3.5 q=29.0 size=   16128kB time=00:00:07.53 bitrate=17538.0kbits/s speed=0.093x    frame=  286 fps=3.5 q=29.0 size=   16128kB time=00:00:07.56 bitrate=17460.8kbits/s speed=0.0928x    frame=  287 fps=3.5 q=29.0 size=   16384kB time=00:00:07.60 bitrate=17660.1kbits/s speed=0.0923x    frame=  289 fps=3.5 q=29.0 size=   16640kB time=00:00:07.66 bitrate=17780.1kbits/s speed=0.0926x    frame=  291 fps=3.5 q=29.0 size=   16640kB time=00:00:07.73 bitrate=17626.8kbits/s speed=0.0928x    frame=  294 fps=3.5 q=29.0 size=   16896kB time=00:00:07.83 bitrate=17669.5kbits/s speed=0.0929x    frame=  296 fps=3.5 q=29.0 size=   17152kB time=00:00:07.90 bitrate=17785.9kbits/s speed=0.0932x    frame=  297 fps=3.4 q=29.0 size=   17152kB time=00:00:07.93 bitrate=17711.1kbits/s speed=0.092x    frame=  298 fps=3.4 q=29.0 size=   17408kB time=00:00:07.96 bitrate=17900.3kbits/s speed=0.0914x    frame=  300 fps=3.4 q=29.0 size=   17664kB time=00:00:08.03 bitrate=18012.8kbits/s speed=0.0916x    frame=  301 fps=3.4 q=29.0 size=   17664kB time=00:00:08.06 bitrate=17938.4kbits/s speed=0.0903x    frame=  302 fps=3.4 q=29.0 size=   17664kB time=00:00:08.10 bitrate=17864.5kbits/s speed=0.0901x    frame=  305 fps=3.4 q=29.0 size=   17920kB time=00:00:08.20 bitrate=17902.4kbits/s speed=0.0906x    frame=  306 fps=3.4 q=29.0 size=   17920kB time=00:00:08.23 bitrate=17829.9kbits/s speed=0.0904x    frame=  309 fps=3.3 q=29.0 size=   18432kB time=00:00:08.33 bitrate=18119.3kbits/s speed=0.0897x    frame=  311 fps=3.3 q=29.0 size=   18432kB time=00:00:08.40 bitrate=17975.5kbits/s speed=0.0895x    frame=  313 fps=3.3 q=29.0 size=   18688kB time=00:00:08.46 bitrate=18081.6kbits/s speed=0.0885x    frame=  315 fps=3.3 q=29.0 size=   18688kB time=00:00:08.53 bitrate=17940.4kbits/s speed=0.0885x    frame=  317 fps=3.3 q=29.0 size=   18944kB time=00:00:08.60 bitrate=18045.2kbits/s speed=0.0883x    frame=  319 fps=3.3 q=29.0 size=   19200kB time=00:00:08.66 bitrate=18148.3kbits/s speed=0.0884x    frame=  321 fps=3.2 q=29.0 size=   19456kB time=00:00:08.73 bitrate=18249.9kbits/s speed=0.0875x    frame=  322 fps=3.2 q=29.0 size=   19456kB time=00:00:08.76 bitrate=18180.5kbits/s speed=0.087x    frame=  324 fps=3.2 q=29.0 size=   19712kB time=00:00:08.83 bitrate=18280.7kbits/s speed=0.0868x    frame=  327 fps=3.2 q=29.0 size=   19968kB time=00:00:08.93 bitrate=18310.9kbits/s speed=0.0874x    frame=  329 fps=3.2 q=29.0 size=   19968kB time=00:00:09.00 bitrate=18175.2kbits/s speed=0.0865x    frame=  330 fps=3.2 q=29.0 size=   20224kB time=00:00:09.03 bitrate=18340.3kbits/s speed=0.0863x    frame=  334 fps=3.2 q=29.0 size=   20480kB time=00:00:09.16 bitrate=18302.3kbits/s speed=0.0868x    frame=  337 fps=3.2 q=29.0 size=   20736kB time=00:00:09.26 bitrate=18331.1kbits/s speed=0.0869x    frame=  338 fps=3.2 q=29.0 size=   20736kB time=00:00:09.30 bitrate=18265.4kbits/s speed=0.0867x    frame=  340 fps=3.2 q=29.0 size=   20992kB time=00:00:09.36 bitrate=18359.3kbits/s speed=0.0869x    frame=  342 fps=3.1 q=29.0 size=   20992kB time=00:00:09.43 bitrate=18229.6kbits/s speed=0.0867x    frame=  344 fps=3.1 q=29.0 size=   21248kB time=00:00:09.50 bitrate=18322.4kbits/s speed=0.0869x    frame=  346 fps=3.1 q=29.0 size=   21248kB time=00:00:09.56 bitrate=18194.7kbits/s speed=0.0868x    frame=  349 fps=3.1 q=29.0 size=   21504kB time=00:00:09.66 bitrate=18223.4kbits/s speed=0.0863x    frame=  353 fps=3.1 q=29.0 size=   21760kB time=00:00:09.80 bitrate=18189.5kbits/s speed=0.0858x    frame=  356 fps=3.1 q=29.0 size=   22016kB time=00:00:09.90 bitrate=18217.6kbits/s speed=0.0863x    frame=  357 fps=3.1 q=29.0 size=   22016kB time=00:00:09.93 bitrate=18156.5kbits/s speed=0.086x    frame=  359 fps=3.1 q=29.0 size=   22272kB time=00:00:10.00 bitrate=18245.1kbits/s speed=0.0861x    frame=  361 fps=3.1 q=29.0 size=   22272kB time=00:00:10.06 bitrate=18124.3kbits/s speed=0.0858x    frame=  365 fps=3.1 q=29.0 size=   22528kB time=00:00:10.20 bitrate=18093.0kbits/s speed=0.0863x    frame=  366 fps=3.1 q=29.0 size=   22784kB time=00:00:10.23 bitrate=18239.0kbits/s speed=0.0862x    frame=  368 fps=3.1 q=29.0 size=   22784kB time=00:00:10.30 bitrate=18120.9kbits/s speed=0.0863x    frame=  369 fps=3.1 q=29.0 size=   22784kB time=00:00:10.33 bitrate=18062.5kbits/s speed=0.086x    frame=  370 fps=3.1 q=29.0 size=   23040kB time=00:00:10.36 bitrate=18206.7kbits/s speed=0.0858x    frame=  373 fps=3.0 q=29.0 size=   23040kB time=00:00:10.46 bitrate=18032.8kbits/s speed=0.0854x    frame=  375 fps=3.0 q=29.0 size=   23296kB time=00:00:10.53 bitrate=18117.7kbits/s speed=0.0855x    frame=  379 fps=3.1 q=29.0 size=   23552kB time=00:00:10.66 bitrate=18087.9kbits/s speed=0.0863x    frame=  383 fps=3.1 q=29.0 size=   23808kB time=00:00:10.80 bitrate=18058.7kbits/s speed=0.0869x    frame=  385 fps=3.0 q=29.0 size=   23808kB time=00:00:10.86 bitrate=17947.9kbits/s speed=0.0854x    frame=  389 fps=3.0 q=29.0 size=   24064kB time=00:00:11.00 bitrate=17921.0kbits/s speed=0.0859x    frame=  390 fps=3.0 q=29.0 size=   24064kB time=00:00:11.03 bitrate=17866.9kbits/s speed=0.0857x    frame=  393 fps=3.0 q=29.0 size=   24320kB time=00:00:11.13 bitrate=17894.8kbits/s speed=0.0862x    frame=  395 fps=3.0 q=29.0 size=   24320kB time=00:00:11.20 bitrate=17788.3kbits/s speed=0.0863x    frame=  397 fps=3.0 q=29.0 size=   24576kB time=00:00:11.26 bitrate=17869.2kbits/s speed=0.0857x    frame=  399 fps=3.0 q=29.0 size=   24576kB time=00:00:11.33 bitrate=17764.0kbits/s speed=0.0857x    frame=  403 fps=3.0 q=29.0 size=   24832kB time=00:00:11.46 bitrate=17740.4kbits/s speed=0.0862x    frame=  405 fps=3.0 q=29.0 size=   25088kB time=00:00:11.53 bitrate=17819.7kbits/s speed=0.0858x    frame=  407 fps=3.0 q=29.0 size=   25088kB time=00:00:11.60 bitrate=17717.3kbits/s speed=0.0859x    frame=  409 fps=3.0 q=29.0 size=   25344kB time=00:00:11.66 bitrate=17795.8kbits/s speed=0.0859x    frame=  411 fps=3.0 q=29.0 size=   25344kB time=00:00:11.73 bitrate=17694.7kbits/s speed=0.086x    frame=  413 fps=3.0 q=29.0 size=   25344kB time=00:00:11.80 bitrate=17594.7kbits/s speed=0.086x    frame=  416 fps=3.0 q=29.0 size=   25600kB time=00:00:11.90 bitrate=17623.1kbits/s speed=0.0864x    frame=  417 fps=3.0 q=29.0 size=   25600kB time=00:00:11.93 bitrate=17573.8kbits/s speed=0.0859x    frame=  421 fps=3.0 q=29.0 size=   25856kB time=00:00:12.06 bitrate=17553.4kbits/s speed=0.0864x    frame=  425 fps=3.0 q=29.0 size=   26112kB time=00:00:12.20 bitrate=17533.5kbits/s speed=0.0866x    frame=  426 fps=3.0 q=29.0 size=   26112kB time=00:00:12.23 bitrate=17485.7kbits/s speed=0.0865x    frame=  429 fps=3.0 q=29.0 size=   26368kB time=00:00:12.33 bitrate=17514.0kbits/s speed=0.0855x    frame=  431 fps=3.0 q=29.0 size=   26368kB time=00:00:12.40 bitrate=17419.8kbits/s speed=0.0856x    frame=  435 fps=3.0 q=29.0 size=   26624kB time=00:00:12.53 bitrate=17401.8kbits/s speed=0.0863x    frame=  440 fps=3.0 q=29.0 size=   26880kB time=00:00:12.70 bitrate=17338.6kbits/s speed=0.0871x    frame=  441 fps=3.0 q=29.0 size=   27136kB time=00:00:12.73 bitrate=17457.9kbits/s speed=0.0864x    frame=  442 fps=3.0 q=29.0 size=   27136kB time=00:00:12.76 bitrate=17412.3kbits/s speed=0.0862x    frame=  445 fps=3.0 q=29.0 size=   27136kB time=00:00:12.86 bitrate=17277.0kbits/s speed=0.0861x    frame=  449 fps=3.0 q=29.0 size=   27392kB time=00:00:13.00 bitrate=17261.1kbits/s speed=0.0857x    frame=  451 fps=3.0 q=29.0 size=   27648kB time=00:00:13.06 bitrate=17333.5kbits/s speed=0.0858x    frame=  456 fps=3.0 q=29.0 size=   27904kB time=00:00:13.23 bitrate=17273.7kbits/s speed=0.0865x    frame=  459 fps=3.0 q=29.0 size=   28160kB time=00:00:13.33 bitrate=17301.4kbits/s speed=0.0869x    frame=  461 fps=3.0 q=29.0 size=   28160kB time=00:00:13.40 bitrate=17215.4kbits/s speed=0.0861x    frame=  465 fps=3.0 q=29.0 size=   28416kB time=00:00:13.53 bitrate=17200.7kbits/s speed=0.0861x    frame=  467 fps=3.0 q=29.0 size=   28416kB time=00:00:13.60 bitrate=17116.4kbits/s speed=0.0862x    frame=  470 fps=3.0 q=29.0 size=   28672kB time=00:00:13.70 bitrate=17144.5kbits/s speed=0.0865x    frame=  473 fps=3.0 q=29.0 size=   28928kB time=00:00:13.80 bitrate=17172.3kbits/s speed=0.0867x    frame=  477 fps=3.0 q=29.0 size=   29184kB time=00:00:13.93 bitrate=17158.5kbits/s speed=0.0872x    frame=  479 fps=3.0 q=29.0 size=   29184kB time=00:00:14.00 bitrate=17076.8kbits/s speed=0.0864x    frame=  481 fps=3.0 q=29.0 size=   29440kB time=00:00:14.06 bitrate=17144.9kbits/s speed=0.0865x    frame=  484 fps=3.0 q=29.0 size=   29440kB time=00:00:14.16 bitrate=17023.9kbits/s speed=0.0868x    frame=  487 fps=3.0 q=29.0 size=   29696kB time=00:00:14.26 bitrate=17051.6kbits/s speed=0.0871x    frame=  491 fps=3.0 q=29.0 size=   29952kB time=00:00:14.40 bitrate=17039.3kbits/s speed=0.0867x    frame=  493 fps=3.0 q=29.0 size=   29952kB time=00:00:14.46 bitrate=16960.8kbits/s speed=0.0868x    frame=  496 fps=3.0 q=29.0 size=   30208kB time=00:00:14.56 bitrate=16988.3kbits/s speed=0.0868x    frame=  498 fps=3.0 q=29.0 size=   30208kB time=00:00:14.63 bitrate=16910.9kbits/s speed=0.0868x    frame=  499 fps=3.0 q=29.0 size=   30464kB time=00:00:14.66 bitrate=17015.5kbits/s speed=0.0867x    frame=  502 fps=3.0 q=29.0 size=   30464kB time=00:00:14.76 bitrate=16900.3kbits/s speed=0.0871x    frame=  504 fps=3.0 q=29.0 size=   30720kB time=00:00:14.83 bitrate=16965.7kbits/s speed=0.0868x    frame=  506 fps=3.0 q=29.0 size=   30720kB time=00:00:14.90 bitrate=16889.8kbits/s speed=0.0869x    frame=  509 fps=2.9 q=29.0 size=   30976kB time=00:00:15.00 bitrate=16917.0kbits/s speed=0.0869x    frame=  511 fps=3.0 q=29.0 size=   30976kB time=00:00:15.06 bitrate=16842.1kbits/s speed=0.087x    frame=  513 fps=2.9 q=29.0 size=   31232kB time=00:00:15.13 bitrate=16906.5kbits/s speed=0.087x    frame=  514 fps=2.9 q=26.0 size=   31232kB time=00:00:15.16 bitrate=16869.4kbits/s speed=0.0867x    frame=  516 fps=2.9 q=29.0 size=   31232kB time=00:00:15.23 bitrate=16795.5kbits/s speed=0.0865x    frame=  519 fps=2.9 q=29.0 size=   31488kB time=00:00:15.33 bitrate=16822.8kbits/s speed=0.0868x    frame=  521 fps=2.9 q=29.0 size=   31488kB time=00:00:15.40 bitrate=16749.9kbits/s speed=0.0866x    frame=  523 fps=2.9 q=29.0 size=   31744kB time=00:00:15.46 bitrate=16813.3kbits/s speed=0.0867x    frame=  524 fps=2.9 q=29.0 size=   31744kB time=00:00:15.50 bitrate=16777.2kbits/s speed=0.0866x    frame=  529 fps=2.9 q=29.0 size=   32256kB time=00:00:15.66 bitrate=16866.4kbits/s speed=0.0873x    frame=  531 fps=2.9 q=29.0 size=   32256kB time=00:00:15.73 bitrate=16794.9kbits/s speed=0.0873x    frame=  535 fps=2.9 q=29.0 size=   32512kB time=00:00:15.86 bitrate=16786.0kbits/s speed=0.0869x    frame=  537 fps=2.9 q=29.0 size=   32512kB time=00:00:15.93 bitrate=16715.7kbits/s speed=0.087x    frame=  540 fps=2.9 q=29.0 size=   32768kB time=00:00:16.03 bitrate=16742.3kbits/s speed=0.0871x    frame=  543 fps=2.9 q=29.0 size=   33024kB time=00:00:16.13 bitrate=16768.5kbits/s speed=0.0871x    frame=  547 fps=2.9 q=29.0 size=   33280kB time=00:00:16.26 bitrate=16760.0kbits/s speed=0.0874x    frame=  553 fps=3.0 q=29.0 size=   33536kB time=00:00:16.46 bitrate=16683.8kbits/s speed=0.0882x    frame=  558 fps=3.0 q=29.0 size=   33792kB time=00:00:16.63 bitrate=16642.7kbits/s speed=0.0889x    frame=  559 fps=3.0 q=29.0 size=   33792kB time=00:00:16.66 bitrate=16609.4kbits/s speed=0.0886x    frame=  563 fps=3.0 q=29.0 size=   34048kB time=00:00:16.80 bitrate=16602.4kbits/s speed=0.089x    frame=  565 fps=3.0 q=29.0 size=   34048kB time=00:00:16.86 bitrate=16536.8kbits/s speed=0.0891x    frame=  571 fps=3.0 q=29.0 size=   34560kB time=00:00:17.06 bitrate=16588.8kbits/s speed=0.0895x    frame=  572 fps=3.0 q=29.0 size=   34560kB time=00:00:17.10 bitrate=16556.4kbits/s speed=0.0892x    frame=  575 fps=3.0 q=29.0 size=   35072kB time=00:00:17.20 bitrate=16704.0kbits/s speed=0.0892x    